<?xml version="1.0" encoding="UTF-8" standalone="no"?>
<!-- Created with Inkscape (http://www.inkscape.org/) -->

<svg
   width="223.15614mm"
   height="223.15614mm"
   viewBox="0 0 223.15613 223.15613"
   version="1.1"
   id="svg5"
   xmlns="http://www.w3.org/2000/svg"
   xmlns:svg="http://www.w3.org/2000/svg">
  <defs
     id="defs2">
    <clipPath
       id="clip963">
      <path
         d="M 9.78125,7.648438 H 54.003906 V 51.878906 H 9.78125 Z m 0,0"
         id="path6367" />
    </clipPath>
    <clipPath
       id="clip841">
      <path
         d="m 581.45703,361.875 h 10.20313 v 10.20703 h -10.20313 z m 0,0"
         id="path6001" />
    </clipPath>
    <clipPath
       id="clip840">
      <path
         d="m 518.75,356.77344 h 10.20312 v 10.20703 H 518.75 Z m 0,0"
         id="path5998" />
    </clipPath>
    <clipPath
       id="clip828">
      <path
         d="m 218.70703,395.80078 h 10.20313 v 10.20703 h -10.20313 z m 0,0"
         id="path5962" />
    </clipPath>
    <clipPath
       id="clip878">
      <path
         d="m 188.73047,320.85156 h 10.20312 v 10.20703 h -10.20312 z m 0,0"
         id="path6112" />
    </clipPath>
    <clipPath
       id="clip831">
      <path
         d="M 259.11328,340 H 265 v 6 h -5.88672 z m 0,0"
         id="path5971" />
    </clipPath>
    <clipPath
       id="clip830">
      <path
         d="m 259.11328,337.68359 h 10.20313 v 10.20313 h -10.20313 z m 0,0"
         id="path5968" />
    </clipPath>
    <clipPath
       id="clip833">
      <path
         d="m 276,340 h 4.9375 v 6 H 276 Z m 0,0"
         id="path5977" />
    </clipPath>
    <clipPath
       id="clip832">
      <path
         d="m 270.73437,337.68359 h 10.20313 v 10.20313 h -10.20313 z m 0,0"
         id="path5974" />
    </clipPath>
    <clipPath
       id="clip813">
      <path
         d="m 140.41016,369.54687 h 10.20703 V 379.75 h -10.20703 z m 0,0"
         id="path5917" />
    </clipPath>
    <clipPath
       id="clip856">
      <path
         d="m 668.63672,325.64062 h 10.20312 v 10.20704 h -10.20312 z m 0,0"
         id="path6046" />
    </clipPath>
    <clipPath
       id="clip844">
      <path
         d="m 88,418.05469 h 10.203125 v 10.20312 H 88 Z m 0,0"
         id="path5987" />
    </clipPath>
    <clipPath
       id="clip877">
      <path
         d="m 406.22656,815.97656 h 10.20703 v 10.20313 h -10.20703 z m 0,0"
         id="path5928" />
    </clipPath>
    <clipPath
       id="clip850">
      <path
         d="m 235.72656,306.97266 h 8.50391 v 8.5039 h -8.50391 z m 0,0"
         id="path6005" />
    </clipPath>
    <clipPath
       id="clip866">
      <path
         d="m 452.07812,278.90234 h 8.50391 v 8.50391 h -8.50391 z m 0,0"
         id="path6053" />
    </clipPath>
    <clipPath
       id="clip868">
      <path
         d="m 522.625,262.90234 h 8.50391 v 8.50391 H 522.625 Z m 0,0"
         id="path6059" />
    </clipPath>
    <clipPath
       id="clip870">
      <path
         d="m 532.54687,262.90234 h 8.50391 v 8.50391 h -8.50391 z m 0,0"
         id="path6065" />
    </clipPath>
    <clipPath
       id="clip835">
      <path
         d="m 327.69141,330.54687 h 8.5039 v 8.50391 h -8.5039 z m 0,0"
         id="path5983" />
    </clipPath>
    <clipPath
       id="clip848">
      <path
         d="m 80.484375,306.49609 h 8.503906 V 315 h -8.503906 z m 0,0"
         id="path5999" />
    </clipPath>
    <clipPath
       id="clip847">
      <path
         d="m 94,308 h 4.910156 v 6 H 94 Z m 0,0"
         id="path5996" />
    </clipPath>
    <clipPath
       id="clip846">
      <path
         d="m 90.40625,306.49609 h 8.503906 V 315 H 90.40625 Z m 0,0"
         id="path5993" />
    </clipPath>
    <clipPath
       id="clip841-4">
      <path
         d="m 64.136719,527.73047 h 8.503906 v 8.5039 h -8.503906 z m 0,0"
         id="path5978" />
    </clipPath>
    <clipPath
       id="clip810">
      <path
         d="m 61.292969,166.63672 h 8.503906 v 8.5039 h -8.503906 z m 0,0"
         id="path5908" />
    </clipPath>
    <clipPath
       id="clip850-2">
      <path
         d="m 680.25781,326.49219 h 8.50391 v 8.5039 h -8.50391 z m 0,0"
         id="path6028" />
    </clipPath>
    <clipPath
       id="clip923">
      <path
         d="m 355.59375,696.83203 h 8.50391 v 8.50391 h -8.50391 z m 0,0"
         id="path6066" />
    </clipPath>
  </defs>
  <g
     clip-path="url(#clip923)"
     clip-rule="nonzero"
     id="g24651"
     transform="matrix(26.241593,0,0,26.241593,-9331.3465,-18285.983)"
     style="stroke-width:0.0134435;fill:#0072bc;fill-opacity:1">
    <path
       style="fill:#0072bc;fill-opacity:1;fill-rule:nonzero;stroke:none;stroke-width:0.0134435"
       d="m 364.09766,704.33594 c 0,0.55859 -0.44141,1 -1,1 h -6.50391 c -0.55469,0 -1,-0.45703 -1,-1 v -6.50391 c 0,-0.55469 0.44531,-1 1,-1 h 6.50391 c 0.55859,0 1,0.44531 1,1 z m 0,0"
       id="path24649" />
  </g>
  <path
     style="fill:#ffffff;fill-opacity:1;fill-rule:nonzero;stroke:none;stroke-width:0.352778"
     d="m 32.596685,105.78598 c -0.297542,-1.13067 -1.130663,-5.63844 -1.130663,-9.020751 0,-18.75856 14.248567,-35.97958 39.772507,-35.97958 24.39625,0 39.464551,15.78612 39.464551,34.8519 0,13.940601 -7.5851,25.114061 -21.115851,33.007131 l -20.19421,11.99318 c -2.97542,1.94891 -5.63843,4.09866 -7.17822,7.17823 h 49.203121 v 21.32115 H 30.745231 c 0,-19.47565 5.638428,-35.26177 25.114068,-46.84509 l 17.32367,-10.14769 c 8.20027,-4.82019 11.58333,-9.32871 11.58333,-16.503941 0,-6.76909 -4.82019,-12.71027 -14.24857,-12.71027 -10.14768,0 -14.96564,6.76166 -14.96564,15.68272 0,2.253891 0.29754,4.507761 1.13066,6.456671 z m 0,0"
     id="path24653" />
  <path
     style="fill:#ffffff;fill-opacity:1;fill-rule:nonzero;stroke:none;stroke-width:0.352778"
     d="m 140.63808,134.69222 c 0.44632,8.20103 6.76165,15.68348 17.32367,15.68348 8.61088,0 15.68346,-5.5343 15.68346,-15.37552 0,-10.45564 -7.89306,-15.68347 -16.50319,-15.68347 -7.07408,0 -12.4038,3.68954 -14.96639,6.76166 -0.37193,0 -22.55149,-7.17821 -22.8587,-7.58584 l 11.99319,-55.045361 h 61.50353 v 21.32115 H 148.941 l -4.20278,19.886251 c 4.20278,-3.68952 12.09584,-5.638431 18.04148,-5.638431 21.73101,0 36.79932,12.812921 36.79932,35.261771 0,19.88624 -15.06831,37.51713 -41.61727,37.51713 -23.67917,0 -39.7725,-16.09333 -40.90019,-33.00714 z m 0,0"
     id="path24655" />
</svg>
